<?xml version="1.0" encoding="UTF-8" standalone="no"?>
<svg width="149px" height="40px" viewBox="0 0 149 40" version="1.1" xmlns="http://www.w3.org/2000/svg" xmlns:xlink="http://www.w3.org/1999/xlink">
    <!-- Generator: Sketch 41.2 (35397) - http://www.bohemiancoding.com/sketch -->
    <title>ARTGL</title>
    <desc>Created with Sketch.</desc>
    <defs></defs>
    <g id="babylon" stroke="none" stroke-width="1" fill="none" fill-rule="evenodd">
        <path d="M25.59375,30.2109375 L10.1015625,30.2109375 L6.0703125,39 L0.1875,39 L18.09375,0.5390625 L35.3671875,39 L29.390625,39 L25.59375,30.2109375 Z M23.3671875,25.078125 L18,12.7734375 L12.375,25.078125 L23.3671875,25.078125 Z M52.1484375,23.578125 L63.3515625,39 L56.671875,39 L46.3359375,24.1875 L45.3515625,24.1875 L45.3515625,39 L39.890625,39 L39.890625,2.8125 L46.2890625,2.8125 C51.0703364,2.8125 54.5234269,3.71092852 56.6484375,5.5078125 C58.9921992,7.5078225 60.1640625,10.1484211 60.1640625,13.4296875 C60.1640625,15.9922003 59.4296948,18.1953033 57.9609375,20.0390625 C56.4921802,21.8828217 54.5546995,23.0624974 52.1484375,23.578125 Z M45.3515625,19.4296875 L47.0859375,19.4296875 C52.2578384,19.4296875 54.84375,17.4531448 54.84375,13.5 C54.84375,9.79685648 52.3281502,7.9453125 47.296875,7.9453125 L45.3515625,7.9453125 L45.3515625,19.4296875 Z M78.7734375,7.9453125 L78.7734375,39 L73.3125,39 L73.3125,7.9453125 L64.9921875,7.9453125 L64.9921875,2.8125 L87.0703125,2.8125 L87.0703125,7.9453125 L78.7734375,7.9453125 Z M110.554688,20.15625 L125.507812,20.15625 L125.507812,21.3515625 C125.507812,24.0703261 125.187503,26.476552 124.546875,28.5703125 C123.921872,30.5078222 122.867195,32.3203041 121.382812,34.0078125 C118.023421,37.7890814 113.750026,39.6796875 108.5625,39.6796875 C103.499975,39.6796875 99.1640805,37.8515808 95.5546875,34.1953125 C91.9452945,30.5234191 90.140625,26.1172132 90.140625,20.9765625 C90.140625,15.7265362 91.9765441,11.2734558 95.6484375,7.6171875 C99.3203309,3.94529414 103.789036,2.109375 109.054688,2.109375 C111.882827,2.109375 114.523425,2.68749422 116.976562,3.84375 C119.320324,5.00000578 121.624989,6.87498703 123.890625,9.46875 L120,13.1953125 C117.031235,9.24216773 113.414084,7.265625 109.148438,7.265625 C105.320293,7.265625 102.109388,8.5859243 99.515625,11.2265625 C96.921862,13.8203255 95.625,17.070293 95.625,20.9765625 C95.625,25.0078327 97.070298,28.328112 99.9609375,30.9375 C102.664076,33.3593871 105.593734,34.5703125 108.75,34.5703125 C111.437513,34.5703125 113.851552,33.6640716 115.992188,31.8515625 C118.132823,30.0234284 119.328124,27.8359502 119.578125,25.2890625 L110.554688,25.2890625 L110.554688,20.15625 Z M137.835938,2.8125 L137.835938,33.8671875 L148.476562,33.8671875 L148.476562,39 L132.375,39 L132.375,2.8125 L137.835938,2.8125 Z" id="ARTGL" fill="#000000"></path>
    </g>
</svg>