<?xml version="1.0" encoding="utf-8"?>
<svg version="1.1" id="art" xmlns="http://www.w3.org/2000/svg" xmlns:xlink="http://www.w3.org/1999/xlink" x="0px" y="0px"
	 viewBox="0 0 145.5 109.5" style="enable-background:new 0 0 145.5 109.5;" xml:space="preserve">
<polygon id="XMLID_67_" points="5.9,48.5 21.2,12.9 45.3,67.5 25.8,67.5 15,43.2 4,67.5 "/>
<polygon id="XMLID_66_" points="113.9,16.3 76.2,15.8 64.1,33.9 68.7,32.2 80.7,64.7 96.2,64.7 84.1,31.8 "/>
<path id="XMLID_65_" d="M35.1,22.2l25.6,9.4l13.1,12.7l-13.3,6.7l13,29.3c0,0-23.1-15.9-22.7-15.9S35.1,22.2,35.1,22.2z"/>
<path id="XMLID_64_" d="M36.9,37.3"/>
<polygon id="XMLID_63_" points="33.3,64.6 35.3,22.5 45.8,45.8 "/>
<path id="XMLID_62_" d="M105.8,53.2"/>
<polygon id="XMLID_61_" points="109.2,104.5 116.6,31.4 100.5,37.1 98.5,76.2 "/>
<polygon id="XMLID_60_" points="131.8,14 129.3,37.7 146.3,27.4 141.2,42.8 114.7,66.2 121.8,2.5 "/>
<polygon id="XMLID_59_" points="90.8,42.3 98.8,38.5 96.8,62.4 "/>
</svg>
